<svg width="24" height="24" viewBox="0 0 24 24" fill="none" xmlns="http://www.w3.org/2000/svg">
<path fill-rule="evenodd" clip-rule="evenodd" d="M12 4.5C7.86232 4.5 4.5 7.86232 4.5 12C4.5 16.1377 7.86232 19.5 12 19.5C16.1377 19.5 19.5 16.1377 19.5 12C19.5 7.86232 16.1377 4.5 12 4.5ZM12 17.9565C8.71739 17.9565 6.04348 15.2826 6.04348 12C6.04348 8.71739 8.71739 6.04348 12 6.04348C15.2826 6.04348 17.9565 8.71739 17.9565 12C17.9565 15.2826 15.2826 17.9565 12 17.9565ZM12.0001 7.97104C11.4928 7.97104 11.0798 8.39133 11.0798 8.90583C11.0798 9.42032 11.4928 9.82612 12.0001 9.82612C12.5073 9.82612 12.9203 9.40583 12.9203 8.89133C12.9203 8.37684 12.5073 7.97104 12.0001 7.97104ZM11.0798 11.6377C11.0798 11.1305 11.4928 10.7174 12.0001 10.7174C12.5073 10.7174 12.9203 11.1305 12.9203 11.6377V15.3261C12.9203 15.8334 12.5073 16.2464 12.0001 16.2464C11.4928 16.2464 11.0798 15.8334 11.0798 15.3261V11.6377Z" fill="#0092DB"/>
</svg>
